<svg width="800" height="450" viewBox="0 0 800 450" fill="none" xmlns="http://www.w3.org/2000/svg">
  <defs>
    <linearGradient id="bg2" x1="80" y1="40" x2="730" y2="420" gradientUnits="userSpaceOnUse">
      <stop stop-color="#101223"/>
      <stop offset="1" stop-color="#271338"/>
    </linearGradient>
    <linearGradient id="card" x1="220" y1="130" x2="564" y2="338" gradientUnits="userSpaceOnUse">
      <stop stop-color="#60A5FA" stop-opacity="0.45"/>
      <stop offset="1" stop-color="#F472B6" stop-opacity="0.35"/>
    </linearGradient>
    <linearGradient id="note" x1="0" y1="0" x2="1" y2="1">
      <stop stop-color="#FDE047"/>
      <stop offset="1" stop-color="#EC4899"/>
    </linearGradient>
  </defs>
  <rect x="8" y="8" width="784" height="434" rx="26" fill="url(#bg2)" stroke="rgba(255,255,255,0.24)"/>
  <ellipse cx="670" cy="92" rx="110" ry="70" fill="#4338CA" fill-opacity="0.45">
    <animate attributeName="cx" values="670;650;670" dur="10s" repeatCount="indefinite"/>
  </ellipse>
  <ellipse cx="162" cy="360" rx="130" ry="82" fill="#0EA5E9" fill-opacity="0.35">
    <animate attributeName="cx" values="162;176;162" dur="9s" repeatCount="indefinite"/>
  </ellipse>
  <g>
    <rect x="168" y="120" width="260" height="170" rx="22" fill="url(#card)" stroke="rgba(255,255,255,0.28)">
      <animate attributeName="y" values="120;114;120" dur="4.4s" repeatCount="indefinite"/>
    </rect>
    <rect x="198" y="156" width="180" height="14" rx="7" fill="rgba(255,255,255,0.72)">
      <animate attributeName="width" values="180;160;180" dur="2.2s" repeatCount="indefinite"/>
    </rect>
    <rect x="198" y="184" width="142" height="10" rx="5" fill="rgba(255,255,255,0.44)">
      <animate attributeName="width" values="142;126;142" dur="2.5s" repeatCount="indefinite"/>
    </rect>
    <rect x="198" y="205" width="120" height="10" rx="5" fill="rgba(255,255,255,0.38)">
      <animate attributeName="width" values="120;150;120" dur="2.1s" repeatCount="indefinite"/>
    </rect>
    <rect x="198" y="229" width="166" height="10" rx="5" fill="rgba(255,255,255,0.28)">
      <animate attributeName="width" values="166;136;166" dur="2.8s" repeatCount="indefinite"/>
    </rect>
  </g>
  <g opacity="0.95">
    <rect x="368" y="168" width="266" height="164" rx="22" fill="rgba(17,24,39,0.48)" stroke="rgba(255,255,255,0.25)">
      <animate attributeName="y" values="168;176;168" dur="4.4s" repeatCount="indefinite"/>
    </rect>
    <rect x="398" y="206" width="172" height="12" rx="6" fill="rgba(167,139,250,0.55)">
      <animate attributeName="width" values="172;192;172" dur="1.9s" repeatCount="indefinite"/>
    </rect>
    <rect x="398" y="232" width="148" height="10" rx="5" fill="rgba(244,114,182,0.55)">
      <animate attributeName="width" values="148;118;148" dur="2.3s" repeatCount="indefinite"/>
    </rect>
    <rect x="398" y="254" width="188" height="10" rx="5" fill="rgba(56,189,248,0.5)">
      <animate attributeName="width" values="188;166;188" dur="2s" repeatCount="indefinite"/>
    </rect>
    <rect x="398" y="278" width="128" height="10" rx="5" fill="rgba(255,255,255,0.3)">
      <animate attributeName="width" values="128;142;128" dur="2.6s" repeatCount="indefinite"/>
    </rect>
  </g>
  <path d="M620 126V206C620 218 610 228 598 228C586 228 576 218 576 206C576 194 586 184 598 184C603 184 608 186 612 189V146L676 132V192C676 204 666 214 654 214C642 214 632 204 632 192C632 180 642 170 654 170C659 170 664 172 668 175V122L620 126Z" fill="url(#note)">
    <animateTransform attributeName="transform" type="translate" values="0 0;0 -8;0 0" dur="2.2s" repeatCount="indefinite"/>
  </path>
</svg>
